<svg width="183" height="40" xmlns="http://www.w3.org/2000/svg">
          <!-- 左侧区域 -->
          <rect x="10" y="10" width="62" height="20" rx="4" fill="#f9f5ed" stroke="#e0d9d1" stroke-width="1.5"/>
          
          <!-- 文字加粗 - 左侧 -->
          <text x="30" y="24" text-anchor="middle" font-family="Microsoft YaHei" font-size="12" 
                fill="#5d4037" font-weight="bold">辛苦了</text>
          
          <!-- 改进的茶杯图标 -->
          <g transform="translate(38,3)">
            <!-- 茶杯主体 -->
            <path d="M21 15 
                     C19 14.5 15 14.5 13 15
                     C12 15.5 10 17.5 10 19
                     C10 21.5 12 23 14 24
                     C19 25 26 25 31 24
                     C33 23 35 21.5 35 19
                     C35 17.5 33 15.5 31 15
                     C29 14.5 23 15.5 21 15" 
                  fill="#f9f5ed" stroke="#5d4037" stroke-width="0.8"/>
            
            <!-- 茶杯底座 -->
            <ellipse cx="22.5" cy="23.5" rx="9" ry="0.8" fill="#5d4037" opacity="0.8"/>
            
            <!-- 茶水 -->
            <path d="M13 16.5 C15.5 16 19.5 15.8 22 16 
                     C25 16.2 28 16.5 31 16 
                     C32 17.5 31 20 30 21.5 
                     C28 22.5 22.5 22.5 16 21.5 
                     C15 20 14 18 13 16.5" 
                  fill="#7d5e4f" opacity="0.9"/>
                  
            <!-- 水面反光 -->
            <path d="M16 18 C19 18.2 22 18 26 18 
                     C28 19 27 20.5 25.5 21 
                     C23.5 21.5 19.5 21.3 16.5 21 
                     C16 20 15.5 18.5 16 18" 
                  fill="#f0e6d2" opacity="0.4"/>
            
            <!-- 茶杯手柄 -->
            <path d="M34.5 18.5
                     C37 20 37.5 21 37 22
                     C36.5 23 35 24 33.5 23.5
                     C32 23 31.5 22 32 21
                     C32.5 20 33 19 34.5 18.5" 
                  fill="none" stroke="#5d4037" stroke-width="1.5" stroke-linecap="round"/>
            
            <!-- 手柄内侧高光 -->
            <path d="M34 19.5 C35 20 35.5 20.5 35.5 21.5 
                     C35.5 22.5 35 23 34 23" 
                  stroke="#f9f5ed" stroke-width="1" fill="none"/>
            
            <!-- 杯口厚度 -->
            <path d="M13 15 C16 14 22.5 14 31 15" 
                  stroke="#5d4037" stroke-width="0.8" stroke-linecap="round" fill="none"/>
          </g>
          
          <!-- 优化后的蒸汽动画 -->
          <g transform="translate(52, 12)">
            <!-- 蒸汽飘动路径 -->
            <path id="steamPath1" d="M0,-3 Q5,-10 10,-5" fill="none" stroke="none"/>
            <path id="steamPath2" d="M5,0 Q10,-8 18,-2" fill="none" stroke="none"/>
            <path id="steamPath3" d="M8,2 Q16,-5 25,0" fill="none" stroke="none"/>
            
            <!-- 茶杯蒸汽动画 -->
            <g fill="#f0e6d2" stroke="none" opacity="0.8">
              <circle r="1.5">
                <animateMotion dur="2.5s" repeatCount="indefinite">
                  <mpath href="#steamPath1"/>
                </animateMotion>
                <animate attributeName="opacity" values="0;0.7;0" dur="2.5s" repeatCount="indefinite"/>
                <animate attributeName="r" values="1;2;1" dur="2.5s" repeatCount="indefinite"/>
              </circle>
              <circle r="1.2">
                <animateMotion dur="2.2s" repeatCount="indefinite" begin="0.3s">
                  <mpath href="#steamPath2"/>
                </animateMotion>
                <animate attributeName="opacity" values="0;0.6;0" dur="2.2s" repeatCount="indefinite" begin="0.3s"/>
                <animate attributeName="r" values="0.8;1.8;0.8" dur="2.2s" repeatCount="indefinite"/>
              </circle>
              <circle r="1.0">
                <animateMotion dur="3s" repeatCount="indefinite" begin="0.6s">
                  <mpath href="#steamPath3"/>
                </animateMotion>
                <animate attributeName="opacity" values="0;0.5;0" dur="3s" repeatCount="indefinite" begin="0.6s"/>
                <animate attributeName="r" values="0.6;1.6;0.6" dur="3s" repeatCount="indefinite"/>
              </circle>
            </g>
            
            <!-- 箭头 -->
            <g transform="translate(18, 0)">
              <line x1="0" y1="0" x2="25" y2="0" stroke="#5d4037" stroke-opacity="0.7" stroke-width="1.5"/>
              <g transform="translate(25, 0)">
                <line x1="0" y1="-5" x2="0" y2="5" stroke="#5d4037" stroke-width="1.5"/>
                <polygon points="0,0 -5,5 5,5" fill="#5d4037"/>
                <animateTransform attributeName="transform" type="translate" 
                                  values="0,0; 2,0; 0,0" 
                                  dur="1.5s" repeatCount="indefinite"/>
              </g>
            </g>
          </g>
          
          <!-- 右侧区域 -->
          <rect x="85" y="10" width="58" height="20" rx="4" fill="#f9f5ed" stroke="#e0d9d1" stroke-width="1.5"/>
          
          <!-- 文字加粗 - 右侧 -->
          <text x="120.5" y="24" text-anchor="middle" font-family="Microsoft YaHei" font-size="12" 
                fill="#5d4037" font-weight="bold">下班啦</text>
        </svg>